<svg xmlns="http://www.w3.org/2000/svg" width="500" height="500" viewBox="0 0 500 500">
  <defs>
    <style>
      .cls-1 {
        fill-rule: evenodd;
      }
    </style>
  </defs>
  <path class="cls-1" d="M243.228,189.969C163.1-66.868-232.649,82.624,229.3,414.543c5.97,32.482,55.026,33.695,38.468-3.02C237.394,344.185,417.15,272.9,464.785,226.194c81.993-80.4-47.6-301.836-221.557-36.225h0ZM228.3,206.694c-70.254-222.522-369.864-78.282-.091,192.3,8.011-63.325,151.775-109.5,201.866-171.819,42.194-52.485-14.312-152.292-102.946-85.444C299.558,162.506,269.711,200,247.291,268.716c-9.265,24.042-67.056,8.336-18.994-62.022h0Z"/>
</svg>
