<?xml version="1.0" encoding="UTF-8" standalone="no"?>
<!-- Created with Inkscape (http://www.inkscape.org/) -->

<svg
   xmlns:dc="http://purl.org/dc/elements/1.1/"
   xmlns:cc="http://creativecommons.org/ns#"
   xmlns:rdf="http://www.w3.org/1999/02/22-rdf-syntax-ns#"
   xmlns:svg="http://www.w3.org/2000/svg"
   xmlns="http://www.w3.org/2000/svg"
   xmlns:xlink="http://www.w3.org/1999/xlink"
   xmlns:sodipodi="http://sodipodi.sourceforge.net/DTD/sodipodi-0.dtd"
   xmlns:inkscape="http://www.inkscape.org/namespaces/inkscape"
   width="210mm"
   height="297mm"
   viewBox="0 0 744.09448819 1052.3622047"
   id="svg2"
   version="1.1"
   inkscape:version="0.91 r13725"
   sodipodi:docname="wed.svg"
   inkscape:export-filename="C:\Users\chops\Documents\_programming\GitHub\wedding\res\wed.png"
   inkscape:export-xdpi="90"
   inkscape:export-ydpi="90">
  <defs
     id="defs4">
    <linearGradient
       inkscape:collect="always"
       id="linearGradient5004">
      <stop
         style="stop-color:#a38300;stop-opacity:1;"
         offset="0"
         id="stop5006" />
      <stop
         style="stop-color:#5f4d00;stop-opacity:1"
         offset="1"
         id="stop5008" />
    </linearGradient>
    <linearGradient
       inkscape:collect="always"
       id="linearGradient4964">
      <stop
         style="stop-color:#d4aa00;stop-opacity:1;"
         offset="0"
         id="stop4966" />
      <stop
         style="stop-color:#ffdb47;stop-opacity:1"
         offset="1"
         id="stop4968" />
    </linearGradient>
    <linearGradient
       inkscape:collect="always"
       xlink:href="#linearGradient4964"
       id="linearGradient4970"
       x1="-181.17217"
       y1="756.56153"
       x2="169.50029"
       y2="756.56153"
       gradientUnits="userSpaceOnUse"
       gradientTransform="matrix(0.82851386,-0.55996856,0.55996856,0.82851386,-393.36157,116.88958)" />
    <linearGradient
       inkscape:collect="always"
       xlink:href="#linearGradient4964"
       id="linearGradient4994"
       x1="179.49971"
       y1="659.43359"
       x2="-182.49971"
       y2="658.43359"
       gradientUnits="userSpaceOnUse"
       gradientTransform="matrix(0.82851386,-0.55996856,0.55996856,0.82851386,-393.36157,116.88958)" />
    <linearGradient
       inkscape:collect="always"
       xlink:href="#linearGradient5004"
       id="linearGradient5010"
       x1="-152.52764"
       y1="631.63389"
       x2="141.52764"
       y2="631.63389"
       gradientUnits="userSpaceOnUse"
       gradientTransform="matrix(0.82851386,-0.55996856,0.55996856,0.82851386,-393.36157,116.88958)" />
    <linearGradient
       inkscape:collect="always"
       xlink:href="#linearGradient4964"
       id="linearGradient5122"
       gradientUnits="userSpaceOnUse"
       x1="-181.17217"
       y1="756.56153"
       x2="169.50029"
       y2="756.56153"
       gradientTransform="matrix(-0.91868605,-0.39498852,0.39498852,-0.91868605,-441.95932,1261.0867)" />
    <linearGradient
       inkscape:collect="always"
       xlink:href="#linearGradient4964"
       id="linearGradient5124"
       gradientUnits="userSpaceOnUse"
       x1="179.49971"
       y1="659.43359"
       x2="-182.49971"
       y2="658.43359"
       gradientTransform="matrix(-0.91868605,-0.39498852,0.39498852,-0.91868605,-441.95932,1261.0867)" />
    <linearGradient
       inkscape:collect="always"
       xlink:href="#linearGradient5004"
       id="linearGradient5126"
       gradientUnits="userSpaceOnUse"
       x1="-152.52764"
       y1="631.63389"
       x2="141.52764"
       y2="631.63389"
       gradientTransform="matrix(-0.91868605,-0.39498852,0.39498852,-0.91868605,-441.95932,1261.0867)" />
  </defs>
  <sodipodi:namedview
     id="base"
     pagecolor="#ffffff"
     bordercolor="#666666"
     borderopacity="1.0"
     inkscape:pageopacity="0.0"
     inkscape:pageshadow="2"
     inkscape:zoom="1"
     inkscape:cx="411.43006"
     inkscape:cy="819.43477"
     inkscape:document-units="px"
     inkscape:current-layer="layer1"
     showgrid="false"
     inkscape:window-width="1366"
     inkscape:window-height="706"
     inkscape:window-x="-8"
     inkscape:window-y="-8"
     inkscape:window-maximized="1"
     showborder="false" />
  <metadata
     id="metadata7">
    <rdf:RDF>
      <cc:Work
         rdf:about="">
        <dc:format>image/svg+xml</dc:format>
        <dc:type
           rdf:resource="http://purl.org/dc/dcmitype/StillImage" />
        <dc:title></dc:title>
      </cc:Work>
    </rdf:RDF>
  </metadata>
  <g
     inkscape:label="Layer 1"
     inkscape:groupmode="layer"
     id="layer1">
    <path
       style="opacity:0.10899999;fill:#000000;fill-opacity:1;stroke:#000000;stroke-width:0.14036091"
       d="m 350.78668,432.33344 a 159.80941,20.417312 1.0461795 0 0 -120.00596,9.15175 159.80941,20.417312 1.0461795 0 0 -3.41804,0.93062 l -27.58055,6.79975 a 159.80941,20.417312 1.0461795 0 0 -3.96824,0.89007 159.80941,20.417312 1.0461795 0 0 74.35578,28.60644 159.80941,20.417312 1.0461795 0 0 25.65672,1.67212 18.760569,173.92216 85.920996 0 0 0.0595,0.24198 18.760569,173.92216 85.920996 0 1 0.0399,-0.23647 159.80941,20.417312 1.0461795 0 0 6.70266,0.35421 159.80941,20.417312 1.0461795 0 0 7.1202,0.32664 18.760569,173.92216 85.920996 0 1 -0.0689,-0.12358 18.760569,173.92216 85.920996 0 0 3.38254,2.04969 l -0.67832,0.0655 20.43363,7.84292 0.65496,-0.0629 a 18.760569,173.92216 85.920996 0 0 0.0204,0.0101 18.760569,173.92216 85.920996 0 0 81.59057,6.13642 18.760569,173.92216 85.920996 0 0 54.77902,-1.65979 18.760569,173.92216 85.920996 0 0 0.0557,-0.002 18.760569,173.92216 85.920996 0 0 19.81744,-1.11421 18.760569,173.92216 85.920996 0 0 16.1374,-1.09377 18.760569,173.92216 85.920996 0 0 3.56508,-0.25657 18.760569,173.92216 85.920996 0 0 33.07104,-2.81196 18.760569,173.92216 85.920996 0 0 128.48128,-31.71488 18.760569,173.92216 85.920996 0 0 -2.45396,-0.78918 l -15.98813,-6.13707 a 18.760569,173.92216 85.920996 0 0 -1.81293,-0.8479 18.760569,173.92216 85.920996 0 0 -134.79198,-4.55577 159.80941,20.417312 1.0461795 0 0 -31.73831,-5.91649 159.80941,20.417312 1.0461795 0 0 -0.002,-3.3e-4 159.80941,20.417312 1.0461795 0 0 -11.27871,-1.43923 159.80941,20.417312 1.0461795 0 0 -2.679,-0.31982 159.80941,20.417312 1.0461795 0 0 -26.08156,-2.51387 159.80941,20.417312 1.0461795 0 0 -93.3782,-3.48209 z m -54.9008,48.29273 a 18.760569,173.92216 85.920996 0 0 0.84102,1.64942 18.760569,173.92216 85.920996 0 1 -0.84102,-1.64942 z m 14.86366,-39.6405 a 159.80941,20.417312 1.0461795 0 1 0.92912,6.6e-4 159.80941,20.417312 1.0461795 0 0 -2.76212,0.0221 159.80941,20.417312 1.0461795 0 1 1.83306,-0.0228 z m 13.52462,0.0113 a 159.80941,20.417312 1.0461795 0 1 3.46179,0.0178 159.80941,20.417312 1.0461795 0 0 -3.46179,-0.0178 z m -28.34071,0.1719 a 159.80941,20.417312 1.0461795 0 0 -2.13296,0.0461 159.80941,20.417312 1.0461795 0 1 2.13296,-0.0461 z m 43.75078,0.0101 a 159.80941,20.417312 1.0461795 0 1 4.29098,0.0773 159.80941,20.417312 1.0461795 0 0 -4.29098,-0.0773 z m 15.43141,0.3727 a 159.80941,20.417312 1.0461795 0 1 5.00884,0.15408 159.80941,20.417312 1.0461795 0 0 -5.00884,-0.15408 z m -74.47996,0.009 a 159.80941,20.417312 1.0461795 0 0 -1.51415,0.0545 159.80941,20.417312 1.0461795 0 1 1.51415,-0.0545 z m 89.75184,0.5498 a 159.80941,20.417312 1.0461795 0 1 5.72597,0.25138 159.80941,20.417312 1.0461795 0 0 -5.72597,-0.25138 z m -104.43932,0.0468 a 159.80941,20.417312 1.0461795 0 0 -0.95158,0.0493 159.80941,20.417312 1.0461795 0 1 0.95158,-0.0493 z m 119.35709,0.69091 a 159.80941,20.417312 1.0461795 0 1 6.41895,0.36912 159.80941,20.417312 1.0461795 0 0 -6.41895,-0.36912 z m -133.26525,0.10316 a 159.80941,20.417312 1.0461795 0 0 -0.50268,0.035 159.80941,20.417312 1.0461795 0 1 0.50268,-0.035 z m 147.80569,0.8106 a 159.80941,20.417312 1.0461795 0 1 9.3528,0.67371 159.80941,20.417312 1.0461795 0 0 -9.3528,-0.67371 z m -160.78212,0.17029 a 159.80941,20.417312 1.0461795 0 0 -0.21319,0.0188 159.80941,20.417312 1.0461795 0 1 0.21319,-0.0188 z m 84.45918,0.32275 a 134.2399,17.150542 1.0461791 0 1 74.55454,2.92289 134.2399,17.150542 1.0461791 0 1 40.14531,4.54311 18.760569,173.92216 85.920996 0 0 -107.6907,16.63981 159.80941,20.417312 1.0461795 0 1 -14.2568,-1.01527 159.80941,20.417312 1.0461795 0 1 -35.63601,-3.69911 159.80941,20.417312 1.0461795 0 1 -11.22547,-1.59816 159.80941,20.417312 1.0461795 0 1 -0.30759,-0.0461 159.80941,20.417312 1.0461795 0 1 -9.77274,-1.66142 159.80941,20.417312 1.0461795 0 1 -0.58001,-0.10417 159.80941,20.417312 1.0461795 0 1 -8.22427,-1.68736 159.80941,20.417312 1.0461795 0 1 -11.19003,-2.92712 159.80941,20.417312 1.0461795 0 1 -8.03189,-3.22066 159.80941,20.417312 1.0461795 0 1 -3.48701,-2.28097 134.2399,17.150542 1.0461791 0 1 95.70281,-5.86556 z m 97.63457,1.23065 a 159.80941,20.417312 1.0461795 0 1 6.7516,0.67534 159.80941,20.417312 1.0461795 0 0 -6.7516,-0.67534 z m 13.29766,1.3656 a 159.80941,20.417312 1.0461795 0 1 0.85799,0.0905 159.80941,20.417312 1.0461795 0 1 2.7752,0.3435 159.80941,20.417312 1.0461795 0 0 -3.63318,-0.43401 z m 125.65019,1.12588 a 15.758878,146.09461 85.920996 0 1 4.58513,0.0286 15.758878,146.09461 85.920996 0 0 -6.61901,-0.0101 15.758878,146.09461 85.920996 0 1 2.03388,-0.0185 z m 10.01429,0.0626 a 15.758878,146.09461 85.920996 0 1 6.0433,0.1109 15.758878,146.09461 85.920996 0 0 -6.0433,-0.1109 z m -17.78137,0.008 a 15.758878,146.09461 85.920996 0 0 -7.03742,0.0927 15.758878,146.09461 85.920996 0 1 7.03742,-0.0927 z m 28.93347,0.22479 a 15.758878,146.09461 85.920996 0 1 5.46632,0.20857 15.758878,146.09461 85.920996 0 0 -5.46632,-0.20857 z m -41.98794,0.003 a 15.758878,146.09461 85.920996 0 0 -7.41493,0.19559 15.758878,146.09461 85.920996 0 1 7.41493,-0.19559 z m -92.45218,0.0912 a 159.80941,20.417312 1.0461795 0 1 0.99664,0.12521 159.80941,20.417312 1.0461795 0 1 1.43767,0.19624 159.80941,20.417312 1.0461795 0 1 3.25327,0.48655 159.80941,20.417312 1.0461795 0 0 -5.68758,-0.808 z m 78.81848,0.32242 a 15.758878,146.09461 85.920996 0 0 -0.73741,0.0285 159.80941,20.417312 1.0461795 0 0 -0.007,-0.002 15.758878,146.09461 85.920996 0 1 0.7438,-0.0262 z m 65.77637,6.7e-4 a 15.758878,146.09461 85.920996 0 1 4.86731,0.30393 15.758878,146.09461 85.920996 0 0 -4.86731,-0.30393 z m 9.05479,0.59976 a 15.758878,146.09461 85.920996 0 1 4.19032,0.39119 15.758878,146.09461 85.920996 0 0 -4.19032,-0.39119 z m 7.88655,0.77686 a 15.758878,146.09461 85.920996 0 1 3.48279,0.47261 15.758878,146.09461 85.920996 0 0 -3.48279,-0.47261 z m -380.55316,0.0552 a 134.2399,17.150542 1.0461791 0 0 -5.54351,1.07689 134.2399,17.150542 1.0461791 0 1 5.54351,-1.07689 z m 387.14926,0.88747 a 15.758878,146.09461 85.920996 0 1 2.78934,0.5511 15.758878,146.09461 85.920996 0 0 -2.78934,-0.5511 z m -396.12909,0.93126 a 134.2399,17.150542 1.0461791 0 0 -4.47083,1.27153 134.2399,17.150542 1.0461791 0 1 4.47083,-1.27153 z m 401.40394,0.17159 a 15.758878,146.09461 85.920996 0 1 3.49754,1.0503 15.758878,146.09461 85.920996 0 0 -3.49754,-1.0503 z m 4.91924,1.77722 a 15.758878,146.09461 85.920996 0 1 1.66039,1.13854 15.758878,146.09461 85.920996 0 1 -111.0065,24.77498 15.758878,146.09461 85.920996 0 1 -169.78693,2.23264 15.758878,146.09461 85.920996 0 0 0.27851,0.0526 159.80941,20.417312 1.0461795 0 0 136.86828,-8.96071 l 0.58266,0.0464 35.27396,-8.69666 -0.55823,-0.0444 a 159.80941,20.417312 1.0461795 0 0 0.0516,-0.0112 159.80941,20.417312 1.0461795 0 0 15.71235,-7.72096 18.760569,173.92216 85.920996 0 1 92.58489,-1.67309 15.758878,146.09461 85.920996 0 0 -1.6604,-1.13854 z m -412.92733,0.0821 a 134.2399,17.150542 1.0461791 0 0 -2.01742,0.79762 134.2399,17.150542 1.0461791 0 1 2.01742,-0.79762 z m 224.29614,1.05095 a 134.2399,17.150542 1.0461791 0 1 0.003,6.6e-4 15.758878,146.09461 85.920996 0 0 -12.41494,1.37891 15.758878,146.09461 85.920996 0 0 -13.04628,1.61762 15.758878,146.09461 85.920996 0 1 13.04628,-1.61762 15.758878,146.09461 85.920996 0 1 12.41197,-1.37955 z m -227.79613,0.53132 a 134.2399,17.150542 1.0461791 0 0 -1.37281,0.84174 134.2399,17.150542 1.0461791 0 1 1.37281,-0.84174 z m -2.20312,1.64131 a 134.2399,17.150542 1.0461791 0 0 -0.69961,0.87968 134.2399,17.150542 1.0461791 0 1 0.69961,-0.87968 z m 204.10034,0.8852 a 15.758878,146.09461 85.920996 0 0 -11.91474,1.64682 15.758878,146.09461 85.920996 0 1 11.91474,-1.64682 z m 241.1124,0.5537 a 18.760569,173.92216 85.920996 0 1 -0.0635,0.0406 18.760569,173.92216 85.920996 0 0 0.0635,-0.0406 z m -446.09757,0.24684 a 134.2399,17.150542 1.0461791 0 0 -0.002,0.90629 134.2399,17.150542 1.0461791 0 1 0.002,-0.90629 z m 289.46171,0.78984 a 159.80941,20.417312 1.0461795 0 1 1.44818,0.96208 159.80941,20.417312 1.0461795 0 0 -1.48035,-0.96013 18.760569,173.92216 85.920996 0 1 0.0322,-0.002 z m -96.79233,0.11808 a 15.758878,146.09461 85.920996 0 0 -11.11963,1.71623 15.758878,146.09461 85.920996 0 1 11.11963,-1.71623 z m -192.22893,0.80281 a 134.2399,17.150542 1.0461791 0 0 0.71749,0.92736 134.2399,17.150542 1.0461791 0 1 -0.71749,-0.92736 z m 441.39258,0.13818 a 18.760569,173.92216 85.920996 0 1 -0.19682,0.0863 18.760569,173.92216 85.920996 0 0 0.19682,-0.0863 z m -175.14253,0.72107 a 134.2399,17.150542 1.0461791 0 1 -5.3677,7.78746 159.80941,20.417312 1.0461795 0 1 -70.86914,1.50182 18.760569,173.92216 85.920996 0 0 -39.73961,8.15075 18.760569,173.92216 85.920996 0 0 -6.48449,1.89464 18.760569,173.92216 85.920996 0 1 109.21559,-18.225 134.2399,17.150542 1.0461791 0 1 0.0698,0.0497 18.760569,173.92216 85.920996 0 1 13.17548,-1.1593 z m -85.56962,0.12812 a 15.758878,146.09461 85.920996 0 0 -10.12456,1.75322 15.758878,146.09461 85.920996 0 1 10.12456,-1.75322 z m 111.14575,0.0836 a 159.80941,20.417312 1.0461795 0 1 0.79739,1.03279 159.80941,20.417312 1.0461795 0 0 -0.79739,-1.03279 z M 207.88156,462.338 a 134.2399,17.150542 1.0461791 0 0 1.16574,0.75222 134.2399,17.150542 1.0461791 0 0 0.24424,0.15861 134.2399,17.150542 1.0461791 0 1 -1.40998,-0.91083 z m 433.75022,0.53554 a 18.760569,173.92216 85.920996 0 1 -0.44489,0.15017 18.760569,173.92216 85.920996 0 0 0.44489,-0.15017 z m -265.96715,0.64841 a 15.758878,146.09461 85.920996 0 0 -8.54686,1.67536 15.758878,146.09461 85.920996 0 1 8.54686,-1.67536 z m 123.60311,0.19779 a 159.80941,20.417312 1.0461795 0 1 -3e-4,1.02111 159.80941,20.417312 1.0461795 0 0 3e-4,-1.02111 z m -288.33462,0.31528 a 134.2399,17.150542 1.0461791 0 0 2.1527,0.92802 134.2399,17.150542 1.0461791 0 1 -2.1527,-0.92802 z m 423.34424,1.01332 a 18.760569,173.92216 85.920996 0 1 -0.82239,0.22641 18.760569,173.92216 85.920996 0 0 0.82239,-0.22641 z m -268.07601,0.35421 a 15.758878,146.09461 85.920996 0 0 -7.4565,1.67667 15.758878,146.09461 85.920996 0 1 7.4565,-1.67667 z m -150.93399,0.31691 a 134.2399,17.150542 1.0461791 0 0 2.88777,0.9251 134.2399,17.150542 1.0461791 0 1 -2.88777,-0.9251 z m 283.76555,0.037 a 159.80941,20.417312 1.0461795 0 1 -0.79362,0.99712 159.80941,20.417312 1.0461795 0 0 0.79362,-0.99712 z m 126.47833,1.47264 a 18.760569,173.92216 85.920996 0 1 -1.35564,0.31691 18.760569,173.92216 85.920996 0 0 1.35564,-0.31691 z m -267.71703,0.0987 a 15.758878,146.09461 85.920996 0 0 -6.18201,1.62703 15.758878,146.09461 85.920996 0 1 6.18201,-1.62703 z m -136.92177,0.0476 a 134.2399,17.150542 1.0461791 0 0 3.55881,0.89656 134.2399,17.150542 1.0461791 0 1 -3.55881,-0.89656 z m 276.3324,0.37563 a 159.80941,20.417312 1.0461795 0 1 -1.58266,0.96888 159.80941,20.417312 1.0461795 0 0 1.58266,-0.96888 z m -269.55823,1.2186 a 134.2399,17.150542 1.0461791 0 0 4.2204,0.86379 134.2399,17.150542 1.0461791 0 1 -4.2204,-0.86379 z m 122.83739,0.34155 a 15.758878,146.09461 85.920996 0 0 -4.71277,1.50053 15.758878,146.09461 85.920996 0 1 4.71277,-1.50053 z m 264.89726,0.096 a 18.760569,173.92216 85.920996 0 1 -1.98196,0.40157 18.760569,173.92216 85.920996 0 0 1.98196,-0.40157 z m -121.57255,0.27377 a 159.80941,20.417312 1.0461795 0 1 -2.36616,0.93419 159.80941,20.417312 1.0461795 0 0 2.36616,-0.93419 z m -28.25183,0.0593 a 134.2399,17.150542 1.0461791 0 1 -5.02139,1.46713 134.2399,17.150542 1.0461791 0 0 5.02139,-1.46713 z m -230.01394,0.75125 a 134.2399,17.150542 1.0461791 0 0 4.83026,0.81967 134.2399,17.150542 1.0461791 0 1 -4.83026,-0.81967 z m 109.22978,0.72139 a 15.758878,146.09461 85.920996 0 0 -3.47795,1.41263 15.758878,146.09461 85.920996 0 1 3.47795,-1.41263 z m 144.09402,0.3195 a 159.80941,20.417312 1.0461795 0 1 -5.31277,1.50994 159.80941,20.417312 1.0461795 0 0 5.31277,-1.50994 z m 115.16249,0.0201 a 18.760569,173.92216 85.920996 0 1 -2.7536,0.49207 18.760569,173.92216 85.920996 0 0 2.7536,-0.49207 z m -359.56782,0.37011 a 134.2399,17.150542 1.0461791 0 0 1.61044,0.229 134.2399,17.150542 1.0461791 0 0 0.0424,0.007 l 5e-4,-3.4e-4 a 134.2399,17.150542 1.0461791 0 0 3.76666,0.53489 134.2399,17.150542 1.0461791 0 1 -5.42034,-0.77038 z m 209.75747,0.64776 a 134.2399,17.150542 1.0461791 0 1 -3.67154,0.62506 134.2399,17.150542 1.0461791 0 0 3.67154,-0.62506 z m -113.81647,0.55986 a 15.758878,146.09461 85.920996 0 0 -2.1878,1.25369 15.758878,146.09461 85.920996 0 1 2.1878,-1.25369 z m -86.05734,0.12359 a 134.2399,17.150542 1.0461791 0 0 5.93813,0.70907 134.2399,17.150542 1.0461791 0 1 -5.93813,-0.70907 z m 337.15267,0.40481 a 18.760569,173.92216 85.920996 0 1 -3.56106,0.5657 18.760569,173.92216 85.920996 0 0 3.56106,-0.5657 z m -144.82934,0.19137 a 134.2399,17.150542 1.0461791 0 1 -4.1966,0.56603 134.2399,17.150542 1.0461791 0 0 4.1966,-0.56603 z m -177.46088,1.05355 a 159.80941,20.417312 1.0461795 0 0 12.10291,1.06231 159.80941,20.417312 1.0461795 0 0 4.59768,0.34124 134.2399,17.150542 1.0461791 0 1 -4.6156,-0.33702 134.2399,17.150542 1.0461791 0 1 -12.08499,-1.06653 z m 68.45616,0.0334 a 15.758878,146.09461 85.920996 0 0 -1.0951,1.12945 15.758878,146.09461 85.920996 0 1 1.0951,-1.12945 z m 100.37084,0.072 a 134.2399,17.150542 1.0461791 0 1 -4.53199,0.48559 134.2399,17.150542 1.0461791 0 0 4.53199,-0.48559 z m 139.9878,0.67729 a 18.760569,173.92216 85.920996 0 1 -4.56211,0.64874 18.760569,173.92216 85.920996 0 0 4.56211,-0.64874 z m -149.59628,0.34675 a 134.2399,17.150542 1.0461791 0 1 -4.95577,0.41746 134.2399,17.150542 1.0461791 0 0 4.95577,-0.41746 z m -91.94679,0.64744 a 15.758878,146.09461 85.920996 0 0 -0.11058,0.97505 15.758878,146.09461 85.920996 0 1 0.11058,-0.97505 z m -42.68876,0.1638 a 134.2399,17.150542 1.0461791 0 0 5.79084,0.34708 134.2399,17.150542 1.0461791 0 1 -5.79084,-0.34708 z m 124.14346,0.0678 a 134.2399,17.150542 1.0461791 0 1 -5.40787,0.34998 134.2399,17.150542 1.0461791 0 0 5.40787,-0.34998 z m 145.72006,0.71912 a 18.760569,173.92216 85.920996 0 1 -5.60971,0.71556 18.760569,173.92216 85.920996 0 0 5.60971,-0.71556 z m -156.99621,0.007 a 134.2399,17.150542 1.0461791 0 1 -5.71631,0.27248 134.2399,17.150542 1.0461791 0 0 5.71631,-0.27248 z m -98.18845,0.0321 a 134.2399,17.150542 1.0461791 0 0 0.63909,0.0319 18.760569,173.92216 85.920996 0 0 -9.3e-4,0.002 134.2399,17.150542 1.0461791 0 1 -0.63738,-0.0344 z m 86.2389,0.53359 a 134.2399,17.150542 1.0461791 0 1 -5.7691,0.18587 134.2399,17.150542 1.0461791 0 0 5.7691,-0.18587 z m -57.79109,0.1171 a 15.758878,146.09461 85.920996 0 0 0.70134,0.81708 15.758878,146.09461 85.920996 0 1 -0.70134,-0.81708 z m 45.28192,0.28252 a 134.2399,17.150542 1.0461791 0 1 -5.93054,0.10674 134.2399,17.150542 1.0461791 0 0 5.93054,-0.10674 z m -12.90337,0.22869 a 134.2399,17.150542 1.0461791 0 1 -11.79309,0.0538 134.2399,17.150542 1.0461791 0 0 11.79309,-0.0538 z m 179.29711,0.63543 a 18.760569,173.92216 85.920996 0 1 -6.80699,0.77784 18.760569,173.92216 85.920996 0 0 6.80699,-0.77784 z m -208.35532,1.00944 a 15.758878,146.09461 85.920996 0 0 4.13432,1.19174 15.758878,146.09461 85.920996 0 1 -4.13432,-1.19174 z m 192.65133,0.71232 a 18.760569,173.92216 85.920996 0 1 -10.63427,1.08664 18.760569,173.92216 85.920996 0 0 10.63427,-1.08664 z m -219.65144,1.88912 a 18.760569,173.92216 85.920996 0 0 4.15122,1.24818 18.760569,173.92216 85.920996 0 1 -4.15122,-1.24818 z m 194.47246,0.5164 a 18.760569,173.92216 85.920996 0 1 -8.62964,0.71491 18.760569,173.92216 85.920996 0 0 8.62964,-0.71491 z m -187.3148,1.39868 a 18.760569,173.92216 85.920996 0 0 3.26497,0.64517 18.760569,173.92216 85.920996 0 1 -3.26497,-0.64517 z m 170.05965,0.003 a 18.760569,173.92216 85.920996 0 1 -1.10826,0.0882 18.760569,173.92216 85.920996 0 1 -3.84359,0.26794 18.760569,173.92216 85.920996 0 0 4.95187,-0.35615 z m -163.01006,1.21412 a 18.760569,173.92216 85.920996 0 0 4.05205,0.54947 18.760569,173.92216 85.920996 0 1 -4.05205,-0.54947 z m 145.70505,0.003 a 18.760569,173.92216 85.920996 0 1 -1.41471,0.0973 18.760569,173.92216 85.920996 0 1 -2.20829,0.14013 18.760569,173.92216 85.920996 0 1 -0.009,6.7e-4 18.760569,173.92216 85.920996 0 1 -5.05162,0.29225 18.760569,173.92216 85.920996 0 0 8.6834,-0.53034 z m -137.09164,1.02177 a 18.760569,173.92216 85.920996 0 0 4.7895,0.44763 18.760569,173.92216 85.920996 0 1 -4.7895,-0.44763 z m 119.81411,0.006 a 18.760569,173.92216 85.920996 0 1 -6.27175,0.32081 18.760569,173.92216 85.920996 0 1 -1.22646,0.0542 18.760569,173.92216 85.920996 0 0 7.49817,-0.37498 z m -109.76943,0.81288 a 18.760569,173.92216 85.920996 0 0 5.5103,0.34383 18.760569,173.92216 85.920996 0 1 -5.5103,-0.34383 z m 87.75662,0.20208 a 18.760569,173.92216 85.920996 0 1 -1.94505,0.0752 18.760569,173.92216 85.920996 0 0 1.94505,-0.0752 z m -76.33616,0.4061 a 18.760569,173.92216 85.920996 0 0 6.13804,0.2342 18.760569,173.92216 85.920996 0 1 -6.13804,-0.2342 z m 59.6149,0.1463 a 18.760569,173.92216 85.920996 0 1 -1.24574,0.0327 18.760569,173.92216 85.920996 0 0 1.24574,-0.0327 z m -46.93453,0.2436 a 18.760569,173.92216 85.920996 0 0 6.69344,0.12326 18.760569,173.92216 85.920996 0 1 -6.69344,-0.12326 z m 30.88553,0.0795 a 18.760569,173.92216 85.920996 0 1 -0.97456,0.013 18.760569,173.92216 85.920996 0 0 0.97456,-0.013 z m -17.13015,0.0876 a 18.760569,173.92216 85.920996 0 0 7.25621,0.0113 18.760569,173.92216 85.920996 0 1 -7.25621,-0.0113 z"
       id="path5247"
       inkscape:connector-curvature="0"
       inkscape:transform-center-x="-53.692678"
       inkscape:transform-center-y="-32.384997" />
    <g
       id="g5232"
       transform="translate(459,-362)">
      <path
         id="path4263"
         d="m -167.10136,774.89031 31.91821,47.22529 0.56151,-0.3795 a 112.32783,174.82782 55.946377 0 0 0.0355,0.0633 112.32783,174.82782 55.946377 0 0 207.747848,-4.83296 112.32783,174.82782 55.946377 0 0 81.947302,-190.96366 112.32783,174.82782 55.946377 0 0 -3.6087,-4.75336 l -25.9412,-38.38188 a 112.32783,174.82782 55.946377 0 1 -84.035626,187.28787 112.32783,174.82782 55.946377 0 1 -207.747744,4.83284 112.32783,174.82782 55.946377 0 1 -0.28325,-0.49927 l -0.59387,0.40138 z"
         style="opacity:1;fill:url(#linearGradient4970);fill-opacity:1;stroke:#000000;stroke-width:0.34434572"
         inkscape:connector-curvature="0" />
      <path
         id="ellipse4265"
         d="m -84.276943,584.02455 a 112.32783,174.82782 55.946377 0 0 -81.947307,190.96366 112.32783,174.82782 55.946377 0 0 207.747744,-4.83284 112.32783,174.82782 55.946377 0 0 81.947296,-190.96366 112.32783,174.82782 55.946377 0 0 -207.747733,4.83284 z m 10.064119,14.89059 a 94.355377,146.85536 55.946377 0 1 174.507894,-4.05963 94.355377,146.85536 55.946377 0 1 -68.8357,160.40926 94.355377,146.85536 55.946377 0 1 -174.50789,4.05963 94.355377,146.85536 55.946377 0 1 68.835696,-160.40926 z"
         style="opacity:1;fill:url(#linearGradient4994);fill-opacity:1;stroke:#000000;stroke-width:0.34434572"
         inkscape:connector-curvature="0" />
      <path
         id="path4958"
         d="m -74.197509,598.9378 a 112.32783,174.82782 55.946377 0 0 -8.87766,6.29955 94.355377,146.85536 55.946377 0 0 -59.973351,154.08705 94.355377,146.85536 55.946377 0 0 8.0682,9.38432 112.32783,174.82782 55.946377 0 1 92.421035,-122.95989 112.32783,174.82782 55.946377 0 1 148.668835,-39.66047 94.355377,146.85536 55.946377 0 0 -5.81448,-11.23285 94.355377,146.85536 55.946377 0 0 -161.725675,-3.96186 112.32783,174.82782 55.946377 0 0 -12.766904,8.04415 z"
         style="opacity:1;fill:url(#linearGradient5010);fill-opacity:1;stroke:#000000;stroke-width:0.34434572"
         inkscape:connector-curvature="0" />
      <path
         id="rect5027"
         d="m -75.742539,811.84247 31.702748,46.9065 A 112.32783,174.82782 55.946377 0 0 8.3364168,848.73844 L -23.274469,801.96785 a 112.32783,174.82782 55.946377 0 1 -52.46807,9.87462 z m 70.6722108,-16.5394 31.5813532,46.72689 a 112.32783,174.82782 55.946377 0 0 17.842866,-8.19338 L 12.7452,787.06924 a 112.32783,174.82782 55.946377 0 1 -17.8155282,8.23383 z"
         style="opacity:0.23000004;fill:#ffffff;fill-opacity:1;stroke:#000000"
         inkscape:connector-curvature="0" />
      <path
         inkscape:connector-curvature="0"
         id="path5196"
         d="m -28.935547,559.76172 a 112.32783,174.82782 55.946377 0 0 -66.341797,32.26367 112.32783,174.82782 55.946377 0 0 -2.970703,2.15039 146.85536,94.355376 23.265258 0 1 14.25,11.97656 94.355377,146.85536 55.946377 0 1 11.568359,-7.25781 112.32783,174.82782 55.946377 0 0 -11.548828,7.27539 146.85536,94.355376 23.265258 0 1 33.613282,45.57227 112.32783,174.82782 55.946377 0 1 55.382812,-27.58203 174.82782,112.32783 23.265258 0 0 -33.953125,-64.39844 z M -189.22852,750.63086 a 112.32783,174.82782 55.946377 0 0 5.32422,19.52344 112.32783,174.82782 55.946377 0 1 -5.23437,-19.4961 146.85536,94.355376 23.265258 0 1 -0.0899,-0.0273 z m 45.26172,18.54883 a 112.32783,174.82782 55.946377 0 0 -2.01367,7.52929 112.32783,174.82782 55.946377 0 1 2.01367,-7.52929 z"
         style="opacity:0.28200001;fill:#000000;fill-opacity:1;stroke:#000000;stroke-width:0.34434572" />
      <path
         style="opacity:1;fill:url(#linearGradient5122);fill-opacity:1;stroke:#000000;stroke-width:0.34434572"
         d="m -10.299633,715.34999 22.514346,-52.3651 -0.622621,-0.2677 a 174.82782,112.32783 23.265258 0 0 0.03407,-0.064 174.82782,112.32783 23.265258 0 0 -116.243992,-172.24941 174.82782,112.32783 23.265258 0 0 -204.98047,34.13919 174.82782,112.32783 23.265258 0 0 -2.05229,5.60403 l -18.29831,42.55921 a 174.82782,112.32783 23.265258 0 1 203.01422,-30.39667 174.82782,112.32783 23.265258 0 1 116.243837,172.24939 174.82782,112.32783 23.265258 0 1 -0.267285,0.50799 l 0.658514,0.28313 z"
         id="path5112"
         inkscape:connector-curvature="0" />
      <path
         id="path5114"
         d="m -225.37305,521.3418 a 174.82782,112.32783 23.265258 0 0 -106.54297,55.10742 174.82782,112.32783 23.265258 0 0 116.24414,172.24805 174.82782,112.32783 23.265258 0 0 43.01758,14.20117 112.32783,174.82782 55.946377 0 1 -5.48437,-20.24024 146.85536,94.355376 23.265258 0 1 -30.4336,-10.4707 146.85536,94.355376 23.265258 0 1 -97.64453,-144.68945 146.85536,94.355376 23.265258 0 1 172.1836,-28.67774 146.85536,94.355376 23.265258 0 1 97.644528,144.68946 146.85536,94.355376 23.265258 0 1 -92.873048,46.26367 112.32783,174.82782 55.946377 0 0 -5.71875,18.93554 94.355377,146.85536 55.946377 0 0 0.35547,0.31641 174.82782,112.32783 23.265258 0 0 123.933594,-54.4668 174.82782,112.32783 23.265258 0 0 -116.244144,-172.25 174.82782,112.32783 23.265258 0 0 -98.4375,-20.96679 z"
         style="opacity:1;fill:url(#linearGradient5124);fill-opacity:1;stroke:#000000;stroke-width:0.34434572"
         inkscape:connector-curvature="0" />
      <path
         id="path5116"
         d="m -299.90234,576.53906 a 146.85536,94.355376 23.265258 0 0 -6.31446,10.95899 146.85536,94.355376 23.265258 0 0 83.99024,138.26172 174.82782,112.32783 23.265258 0 0 13.66601,6.40234 174.82782,112.32783 23.265258 0 0 10.09571,4.07031 146.85536,94.355376 23.265258 0 0 20.32226,6.4082 112.32783,174.82782 55.946377 0 1 7.67969,-56.25585 174.82782,112.32783 23.265258 0 1 -15.78125,-6.12891 174.82782,112.32783 23.265258 0 1 -113.6582,-103.7168 z m 267.054684,115.11328 a 174.82782,112.32783 23.265258 0 1 -68.636724,9.04297 112.32783,174.82782 55.946377 0 0 -27.77929,49.08008 146.85536,94.355376 23.265258 0 0 92.874998,-46.26562 146.85536,94.355376 23.265258 0 0 3.541016,-11.85743 z"
         style="opacity:1;fill:url(#linearGradient5126);fill-opacity:1;stroke:#000000;stroke-width:0.34434572"
         inkscape:connector-curvature="0" />
      <path
         style="opacity:0.23000004;fill:#ffffff;fill-opacity:1;stroke:#000000"
         d="M -28.527795,618.5015 -6.1654294,566.48988 A 174.82782,112.32783 23.265258 0 0 -42.872399,527.81074 l -22.297568,51.86091 a 174.82782,112.32783 23.265258 0 1 36.642172,38.82985 z m -52.081409,-50.55334 22.276737,-51.81246 a 174.82782,112.32783 23.265258 0 0 -16.530759,-10.59402 l -22.296019,51.85731 a 174.82782,112.32783 23.265258 0 1 16.550041,10.54917 z"
         id="path5118"
         inkscape:connector-curvature="0" />
      <path
         style="opacity:0.23000004;fill:#000000;fill-opacity:1;stroke:#000000"
         d="m -249.32014,709.2354 22.03604,-51.25263 a 174.82782,112.32783 23.265258 0 1 -39.36929,-32.48698 l -20.63352,47.99058 a 146.85536,94.355376 23.265258 0 0 37.96677,35.74903 z m -50.34099,-54.6013 19.33438,-44.96896 a 174.82782,112.32783 23.265258 0 1 -12.74751,-19.39332 l -16.38122,38.10034 a 146.85536,94.355376 23.265258 0 0 9.79435,26.26194 z"
         id="path5120"
         inkscape:connector-curvature="0" />
      <path
         id="path5228"
         d="m -188.2168,739.62695 a 112.32783,174.82782 55.946377 0 0 7.9668,21.30469 174.82782,112.32783 23.265258 0 0 7.5957,1.9668 112.32783,174.82782 55.946377 0 1 -5.48437,-20.24024 146.85536,94.355376 23.265258 0 1 -10.07813,-3.03125 z"
         style="opacity:0.28800001;fill:#000000;fill-opacity:1;stroke:#000000;stroke-width:0.34434572"
         inkscape:connector-curvature="0" />
    </g>
  </g>
</svg>
